<?xml version="1.0"?>
<VTKFile type="UnstructuredGrid" version="0.1" byte_order="LittleEndian">
  <UnstructuredGrid><Piece NumberOfPoints="8" NumberOfCells="6">
    <PointData>
      <DataArray type="Float64" Name="temperature" format="ascii">20.518 20.528000000000002 20.538 20.518 20.528000000000002 20.538 20.518 20.528000000000002</DataArray>
      <DataArray type="Float64" Name="pressure" format="ascii">0.102325 0.104325 0.106325 0.108325 0.102325 0.104325 0.106325 0.108325</DataArray>
      <DataArray type="Float64" Name="velocity" format="ascii" NumberOfComponents="3">0.060000000000000005 0.0 0.0 0.060000000000000005 0.01 0.005 0.060000000000000005 0.0 0.01 0.060000000000000005 0.01 0.0 0.060000000000000005 0.0 0.005 0.060000000000000005 0.01 0.01 0.060000000000000005 0.0 0.0 0.060000000000000005 0.01 0.005</DataArray>
    </PointData><CellData><DataArray type="Int32" Name="region_id" format="ascii">1 1 1 1 1 1</DataArray></CellData>
    <Points><DataArray type="Float64" Name="Points" format="ascii" NumberOfComponents="3">-0.26 -0.28 0.0 0.30000000000000004 -0.28 0.0 -0.26 0.28 0.0 0.30000000000000004 0.28 0.0 -0.26 -0.28 1.4 0.30000000000000004 -0.28 1.4 -0.26 0.28 1.4 0.30000000000000004 0.28 1.4</DataArray></Points>
    <Cells><DataArray type="Int32" Name="connectivity" format="ascii">0 1 2 4 1 3 2 7 1 2 4 7 2 4 6 7 1 4 5 7 4 5 6 7</DataArray>
      <DataArray type="Int32" Name="offsets" format="ascii">4 8 12 16 20 24</DataArray>
      <DataArray type="UInt8" Name="types" format="ascii">10 10 10 10 10 10</DataArray></Cells>
  </Piece></UnstructuredGrid>
</VTKFile>
