<?xml version="1.0"?>
<VTKFile type="UnstructuredGrid" version="0.1" byte_order="LittleEndian">
  <UnstructuredGrid><Piece NumberOfPoints="10" NumberOfCells="7">
    <PointData>
      <DataArray type="Float64" Name="temperature" format="ascii">20.518 20.528000000000002 20.538 20.518 20.528000000000002 20.538 20.518 20.528000000000002 20.538 20.518</DataArray>
      <DataArray type="Float64" Name="pressure" format="ascii">0.102325 0.104325 0.106325 0.108325 0.102325 0.104325 0.106325 0.108325 0.102325 0.104325</DataArray>
      <DataArray type="Float64" Name="velocity" format="ascii" NumberOfComponents="3">0.060000000000000005 0.0 0.0 0.060000000000000005 0.01 0.005 0.060000000000000005 0.0 0.01 0.060000000000000005 0.01 0.0 0.060000000000000005 0.0 0.005 0.060000000000000005 0.01 0.01 0.060000000000000005 0.0 0.0 0.060000000000000005 0.01 0.005 0.060000000000000005 0.0 0.01 0.060000000000000005 0.01 0.0</DataArray>
    </PointData><CellData><DataArray type="Int32" Name="region_id" format="ascii">1 1 1 1 1 1 1</DataArray></CellData>
    <Points><DataArray type="Float64" Name="Points" format="ascii" NumberOfComponents="3">-0.43 0 0 0.47000000000000003 0 0 0.02 -0.45 0 0.02 0.45 0 0.02 0 -0.45 0.02 0 0.45 -0.16 -0.18 -0.18 0.19999999999999998 -0.18 -0.18 0.02 0.2 0.0 0.02 0 0.2</DataArray></Points>
    <Cells><DataArray type="Int32" Name="connectivity" format="ascii">0 2 6 8 0 6 4 8 2 4 6 8 1 3 7 8 1 7 5 9 3 5 7 9 1 5 3 9</DataArray>
      <DataArray type="Int32" Name="offsets" format="ascii">4 8 12 16 20 24 28</DataArray>
      <DataArray type="UInt8" Name="types" format="ascii">10 10 10 10 10 10 10</DataArray></Cells>
  </Piece></UnstructuredGrid>
</VTKFile>
