<?xml version="1.0"?>
<VTKFile type="UnstructuredGrid" version="0.1" byte_order="LittleEndian">
  <UnstructuredGrid>
    <Piece NumberOfPoints="8" NumberOfCells="5">
      <PointData>
        <DataArray type="Float64" Name="temperature" format="ascii">20.83014532428006 20.83591857037754 20.83591857037754 20.83014532428006 20.83014532428006 20.83591857037754 20.83591857037754 20.83014532428006</DataArray>
        <DataArray type="Float64" Name="pressure" format="ascii">0.1219 0.1119 0.1119 0.1219 0.1219 0.1119 0.1119 0.1219</DataArray>
        <DataArray type="Float64" Name="velocity" format="ascii" NumberOfComponents="3">0.05 0.0002 0.001 0.05 0.0202 0.001 0.0 0.0202 0.001 0.0 0.0002 0.001 0.05 0.0002 0.011 0.05 0.0202 0.011 0.0 0.0202 0.011 0.0 0.0002 0.011</DataArray>
      </PointData>
      <CellData>
        <DataArray type="Int32" Name="region_id" format="ascii">1 1 1 1 1</DataArray>
      </CellData>
      <Points>
        <DataArray type="Float64" Name="Points" format="ascii" NumberOfComponents="3">0.01 0.0 0.0 1.01 0.0 0.0 1.01 1.0 0.0 0.01 1.0 0.0 0.01 0.0 1.0 1.01 0.0 1.0 1.01 1.0 1.0 0.01 1.0 1.0</DataArray>
      </Points>
      <Cells>
        <DataArray type="Int32" Name="connectivity" format="ascii">0 1 3 4 1 2 3 6 1 3 4 6 1 4 5 6 3 4 6 7</DataArray>
        <DataArray type="Int32" Name="offsets" format="ascii">4 8 12 16 20</DataArray>
        <DataArray type="UInt8" Name="types" format="ascii">10 10 10 10 10</DataArray>
      </Cells>
    </Piece>
  </UnstructuredGrid>
</VTKFile>
